# xmcd
#
# Track frame offsets:
#	150
#	17872
#	30988
#	46013
#	69218
#	87482
#	108624
#	125363
#	149393
#	171713
#
# Disc length: 2516 seconds
#
# Revision: 0
# Processed by: cddbd v1.5.2PL0 Copyright (c) Steve Scherf et al.
# Submitted via: EZCDAudioConverter 5.0.0.1
#
DISCID=8509d20a
DTITLE=Radiofiera - El Miracoeo
DYEAR=2005
DGENRE=Country
TTITLE0=El Miracoeo
TTITLE1=Sai Che Effetto Fa
TTITLE2=Vorrei
TTITLE3=Come Cani
TTITLE4=Solo il cielo è per sempre
TTITLE5=Sweet Mama
TTITLE6=Por Suerte
TTITLE7=Sentai sull'erba a primavera
TTITLE8=Come nebia che sconde el mar
TTITLE9=Se ci fosse un angelo
EXTD=
EXTT0=
EXTT1=
EXTT2=
EXTT3=
EXTT4=
EXTT5=
EXTT6=
EXTT7=
EXTT8=
EXTT9=
PLAYORDER=
